<svg id="Layer_1" data-name="Layer 1" xmlns="http://www.w3.org/2000/svg" viewBox="0 0 830 230"><defs><style>.cls-1{fill:#ff6936;}.cls-2{fill:#17154b;}</style></defs><title>git-docker</title><rect class="cls-1" x="0.44" y="1" width="827.06" height="227.61" rx="29.92"/><path class="cls-2" d="M291.57,157.92c-5.18-4.79-5.92-6.54-11.2-11.82a6.49,6.49,0,0,0-8.48,0c-4.49,4.49-12.56,12.49-16.69,16.62a5.9,5.9,0,0,0-.15,8.64l16.77,16.75a6.33,6.33,0,0,0,8.68,0c2.85-3,4.41-4.68,8.68-8.95,6.32-6.31,19.65-4.86,25.05,0,3.73,3.37,7.14,10.52,17.33,10.52,9.76,0,19.56-7.43,19.56-18.79,0-15-12.95-14.15-12.95-30,0-12.62,9.47-19,19.41-19,14.89,0,15.42,12.77,29.41,12.77,9.83,0,18.77-7.08,18.77-19.46,0-9.17-6-13.59-7.51-15-7.16-6.58-6.44-22,.68-29.17a22.7,22.7,0,0,0,6.68-15.76,19.37,19.37,0,0,0-19.57-19c-12,0-19.77,9.76-19.77,18.79,0,8.86,3.58,12.18,6.67,15.92,2.63,3.19,5.08,6.83,5.08,14.9,0,13-10.58,20-20.42,20-11.54,0-19.43-8.6-19.43-19.74,0-8.85,5.3-14.41,11.84-21a8.26,8.26,0,0,0,0-11.66L336.6,40a11.77,11.77,0,0,0-8.08-3.67H277.58a12.06,12.06,0,0,0-8.29,3.77l-14,14a6.71,6.71,0,0,0,.08,9.56l11.08,10.7c5.1,5.1,5.18,15.63.19,20.63-2,2-5.62,4.52-8.57,7.69-5.78,6.2-6.83,19,1,26.86s20.31,6.4,27.07-.36c3.68-3.67,6.31-7.56,16.76-7.56,11.55,0,19.84,10.26,19.84,19.14,0,11.68-9,20.29-19.67,20.29C300,161,294.69,160.8,291.57,157.92Zm11.36-52c-12.3,0-19.76-9.8-19.76-19.89a19.48,19.48,0,0,1,19.76-19.61c12.36,0,19.77,10.35,19.77,19.7C322.7,96.06,315.22,105.87,302.93,105.87Z"/><path class="cls-2" d="M438.73,142.31a6.81,6.81,0,0,1-4.25-1.21,3.47,3.47,0,0,1-1.6-2.83V83.57a3.35,3.35,0,0,1,1.85-3.1,8.19,8.19,0,0,1,4-1h17.63a26.48,26.48,0,0,1,8.26,1.29,13,13,0,0,1,6.45,4.6q2.49,3.32,2.49,9.42a17.27,17.27,0,0,1-1.93,8.64,11,11,0,0,1-5.38,4.86,15.75,15.75,0,0,1,4.65,2.54,10.59,10.59,0,0,1,3.09,4.26,18.12,18.12,0,0,1,1.12,7v1.81q0,6.8-2.28,10.83a13.49,13.49,0,0,1-6.19,5.85,20.73,20.73,0,0,1-8.82,1.81Zm7.48-39.22h9a4.07,4.07,0,0,0,3.7-1.89,7.42,7.42,0,0,0,1.21-4,7.79,7.79,0,0,0-.56-2.93A5.46,5.46,0,0,0,458,92a4.21,4.21,0,0,0-2.71-.86h-9Zm0,27.52h8.6a6.71,6.71,0,0,0,5.08-1.89q1.8-1.89,1.8-6v-1.38q0-4.38-1.8-6.14a7,7,0,0,0-5.08-1.77h-8.6Z"/><path class="cls-2" d="M502.46,142.82a27.7,27.7,0,0,1-10.71-2,16,16,0,0,1-7.57-6.45q-2.79-4.47-2.79-11.87V99.74q0-7.39,2.79-11.87a16,16,0,0,1,7.57-6.45,27.7,27.7,0,0,1,10.71-2,28,28,0,0,1,10.75,2,15.91,15.91,0,0,1,7.61,6.45q2.79,4.47,2.79,11.87v22.79q0,7.39-2.79,11.87a15.91,15.91,0,0,1-7.61,6.45A28,28,0,0,1,502.46,142.82Zm0-11.69a7.63,7.63,0,0,0,5.67-2.07q2.07-2.06,2.07-6.53V99.74q0-4.47-2.07-6.54a7.67,7.67,0,0,0-5.67-2.06,7.56,7.56,0,0,0-5.64,2.06c-1.34,1.38-2,3.56-2,6.54v22.79c0,3,.68,5.16,2,6.53A7.53,7.53,0,0,0,502.46,131.13Z"/><path class="cls-2" d="M538.06,142.31a6.84,6.84,0,0,1-4.26-1.21,3.48,3.48,0,0,1-1.59-2.83V83.57a3.35,3.35,0,0,1,1.85-3.1,8.16,8.16,0,0,1,4-1h17.63A26.48,26.48,0,0,1,564,80.73a13,13,0,0,1,6.45,4.6q2.49,3.32,2.49,9.42a17.27,17.27,0,0,1-1.93,8.64,11,11,0,0,1-5.38,4.86,15.75,15.75,0,0,1,4.65,2.54,10.69,10.69,0,0,1,3.09,4.26,18.31,18.31,0,0,1,1.12,7v1.81q0,6.8-2.28,10.83A13.49,13.49,0,0,1,566,140.5a20.73,20.73,0,0,1-8.82,1.81Zm7.48-39.22h9a4.08,4.08,0,0,0,3.7-1.89,7.42,7.42,0,0,0,1.21-4,7.79,7.79,0,0,0-.56-2.93A5.46,5.46,0,0,0,557.28,92a4.23,4.23,0,0,0-2.71-.86h-9Zm0,27.52h8.6a6.71,6.71,0,0,0,5.08-1.89q1.8-1.89,1.8-6v-1.38q0-4.38-1.8-6.14a7,7,0,0,0-5.08-1.77h-8.6Z"/></svg>