<svg id="Layer_1" data-name="Layer 1" xmlns="http://www.w3.org/2000/svg" viewBox="0 0 830 230"><defs><style>.cls-1{fill:#f4f4f4;fill-opacity:0.15;}.cls-2{fill:#ff6936;}</style></defs><title>Vector shapes for BOB 2</title><rect class="cls-1" x="1.5" y="1" width="827" height="228" rx="29.92"/><path class="cls-2" d="M292.83,159.87c-5.18-4.79-5.92-6.54-11.2-11.82a6.49,6.49,0,0,0-8.48,0c-4.49,4.49-12.56,12.49-16.69,16.62A5.89,5.89,0,0,0,256,173l.3.31,16.77,16.75a6.32,6.32,0,0,0,8.68,0c2.85-3,4.41-4.68,8.68-8.95,6.32-6.31,19.65-4.86,25.05,0,3.73,3.37,7.14,10.52,17.33,10.52,9.76,0,19.56-7.43,19.56-18.79,0-15-12.95-14.15-12.95-30,0-12.62,9.47-19,19.41-19,14.89,0,15.42,12.77,29.41,12.77,9.83,0,18.77-7.08,18.77-19.46,0-9.17-6-13.59-7.51-15-7.16-6.58-6.44-22,.68-29.17a22.72,22.72,0,0,0,6.68-15.76,19.37,19.37,0,0,0-19.57-19c-12,0-19.77,9.76-19.77,18.79,0,8.86,3.58,12.18,6.67,15.92,2.63,3.19,5.08,6.83,5.08,14.9,0,13-10.58,20-20.42,20-11.54,0-19.43-8.6-19.43-19.74,0-8.85,5.3-14.41,11.84-21a8.26,8.26,0,0,0,0-11.66L337.86,42a11.76,11.76,0,0,0-8.08-3.67H278.84a12,12,0,0,0-8.29,3.77l-14,14a6.7,6.7,0,0,0,0,9.49l.07.07,11.08,10.7c5.1,5.1,5.18,15.63.19,20.63-2,2-5.62,4.52-8.57,7.69-5.78,6.2-6.83,19,1,26.86s20.31,6.4,27.07-.36c3.68-3.67,6.31-7.56,16.76-7.56,11.55,0,19.84,10.26,19.84,19.14,0,11.68-9,20.29-19.67,20.29C301.26,163,296,162.75,292.83,159.87Zm11.66-52.1c-12.3,0-19.76-9.8-19.76-19.89a19.49,19.49,0,0,1,19.34-19.62h.42c12.36,0,19.77,10.35,19.77,19.7,0,9.94-7.48,19.75-19.77,19.75Z"/><path class="cls-2" d="M440.31,144.21a6.76,6.76,0,0,1-4.23-1.21,3.46,3.46,0,0,1-1.59-2.84V85.39a3.37,3.37,0,0,1,1.84-3.11,8.14,8.14,0,0,1,4-1h17.53a26.29,26.29,0,0,1,8.21,1.29,12.94,12.94,0,0,1,6.42,4.61c1.65,2.21,2.48,5.36,2.48,9.43a17.52,17.52,0,0,1-1.92,8.65,11,11,0,0,1-5.35,4.87,15.8,15.8,0,0,1,4.62,2.54,10.64,10.64,0,0,1,3.07,4.27,18.2,18.2,0,0,1,1.12,7v1.81q0,6.81-2.27,10.85a13.5,13.5,0,0,1-6.16,5.86,20.53,20.53,0,0,1-8.77,1.81Zm7.1-38.93h9a4.09,4.09,0,0,0,3.72-1.9,7.53,7.53,0,0,0,1.22-4,7.85,7.85,0,0,0-.57-2.94,5.61,5.61,0,0,0-1.56-2.28,4.25,4.25,0,0,0-2.72-.86h-9Zm.08,27h8.33a6.43,6.43,0,0,0,4.92-1.87q1.75-1.87,1.75-5.94v-1.36q0-4.33-1.75-6.08a6.68,6.68,0,0,0-4.92-1.75h-8.33Z"/><path class="cls-2" d="M503.45,144.5a27.61,27.61,0,0,1-10.66-2,15.93,15.93,0,0,1-7.53-6.42q-2.77-4.44-2.77-11.8V101.64q0-7.35,2.77-11.8a15.93,15.93,0,0,1,7.53-6.42,29.63,29.63,0,0,1,21.35,0,15.78,15.78,0,0,1,7.57,6.42q2.77,4.44,2.78,11.8v22.68q0,7.35-2.78,11.8a15.78,15.78,0,0,1-7.57,6.42A27.73,27.73,0,0,1,503.45,144.5Zm.49-12a7.41,7.41,0,0,0,5.53-2c1.34-1.34,2-3.46,2-6.37V101.87c0-2.91-.68-5-2-6.38a7.48,7.48,0,0,0-5.53-2,7.37,7.37,0,0,0-5.5,2c-1.31,1.34-1.95,3.47-1.95,6.38v22.22c0,2.93.66,5,1.95,6.37A7.32,7.32,0,0,0,503.94,132.48Z"/><path class="cls-2" d="M539.3,144.28a6.78,6.78,0,0,1-4.23-1.21,3.5,3.5,0,0,1-1.58-2.84V85.39a3.36,3.36,0,0,1,1.84-3.11,8,8,0,0,1,4-1h17.51a26,26,0,0,1,8.26,1.26,12.89,12.89,0,0,1,6.4,4.61q2.47,3.33,2.48,9.45a17.47,17.47,0,0,1-1.92,8.66,11,11,0,0,1-5.34,4.87,15.6,15.6,0,0,1,4.62,2.55,10.62,10.62,0,0,1,3.06,4.27,18.44,18.44,0,0,1,1.12,7v1.81q0,6.83-2.27,10.86a13.38,13.38,0,0,1-6.17,5.82,20.35,20.35,0,0,1-8.76,1.82Zm7.16-39h9a4.11,4.11,0,0,0,3.72-1.9,7.53,7.53,0,0,0,1.22-4,7.85,7.85,0,0,0-.57-2.94,5.56,5.56,0,0,0-1.61-2.28,4.25,4.25,0,0,0-2.72-.86h-9Zm1,27h8.33a6.43,6.43,0,0,0,4.92-1.87q1.75-1.87,1.75-5.94v-1.36q0-4.33-1.75-6.08a6.68,6.68,0,0,0-4.92-1.75h-8.33Z"/></svg>