<svg id="Layer_1" data-name="Layer 1" xmlns="http://www.w3.org/2000/svg" viewBox="0 0 986 986"><defs><style>.cls-1{fill:#f4f4f4;}.cls-2{fill:#ff6936;}</style></defs><title>Vector shapes for BOB 2</title><rect class="cls-1" width="986" height="986" rx="85.04"/><path class="cls-2" d="M342.65,671c-20.53-19-23.45-25.88-44.38-46.81-8.28-8.29-25.25-8.53-33.61-.18-17.78,17.84-49.78,49.53-66.12,65.9-9.95,10-10.56,24.26-.59,34.23l66.45,66.39c9,9,25.53,9.22,34.37,0,11.32-11.81,17.49-18.56,34.4-35.46,25-25,77.89-19.28,99.26,0,14.8,13.35,28.31,41.65,68.66,41.65,38.7,0,77.53-29.44,77.53-74.42,0-59.39-51.32-56.07-51.32-119,0-50,37.51-75.24,76.91-75.24,59,0,61.08,50.58,116.52,50.58,38.94,0,74.39-28,74.39-77.09,0-36.33-23.79-53.86-29.75-59.33C737,416.11,739.84,354.8,768,326.6c15.84-15.88,26.48-38.65,26.48-62.49,0-37.18-30.75-75.38-77.53-75.38-47.71,0-78.36,38.7-78.36,74.45,0,35.14,14.2,48.28,26.42,63.08,10.46,12.66,20.15,27.09,20.15,59.06,0,51.42-41.93,79-80.9,79-45.73,0-77-34-77-78.2,0-35.09,21-57.09,46.94-83.22a32.72,32.72,0,0,0,0-46.19l-53.15-53.17c-8.47-8.48-20-14.54-32-14.54H287.22c-12.33,0-24.15,6.23-32.87,14.92l-55.62,55.62a26.56,26.56,0,0,0,0,37.55l.29.29L243,339.8c20.19,20.2,20.53,61.94.74,81.72-7.9,7.9-22.25,17.93-34,30.49-22.89,24.57-27,75.39,4,106.44C245,589.7,294.2,583.81,321,557c14.56-14.55,25-30,66.4-30,45.79,0,78.63,40.65,78.63,75.86,0,46.26-35.74,80.4-78,80.4C375.94,683.34,355,682.43,342.65,671ZM388,465.16c-48.77,0-78.28-38.78-78.28-78.78,0-38.47,29.46-77.71,78.28-77.71,49,0,78.36,41,78.36,78.08,0,39.55-29.64,78.45-78.36,78.45Z"/></svg>