<svg id="Layer_1" data-name="Layer 1" xmlns="http://www.w3.org/2000/svg" viewBox="0 0 1787 993"><defs><style>.cls-1{fill:#f4f4f4;}.cls-2{fill:#ff6936;}</style></defs><title>Vector shapes for BOB 2</title><path class="cls-1" d="M87.45,1h1613.1c47.47,0,86,38.15,86,85.21V906.79c0,47.06-38.48,85.21-86,85.21H87.45C40,992,1.5,953.85,1.5,906.79V86.21C1.5,39.15,40,1,87.45,1Z"/><path class="cls-2" d="M311,674.79c-20.75-19-23.7-25.93-44.86-46.91-8.37-8.3-25.52-8.54-34-.18-18,17.88-50.32,49.63-66.83,66-10.11,10-10.69,24.31-.61,34.3l67.17,66.52c9.09,9,25.8,9.24,34.75,0,11.44-11.83,17.67-18.6,34.76-35.53,25.27-25,78.72-19.32,100.32,0,15,13.38,28.62,41.73,69.41,41.73,39.12,0,78.37-29.5,78.37-74.57,0-59.51-51.89-56.18-51.89-119.24,0-50.1,37.92-75.39,77.75-75.39,59.64,0,61.73,50.68,117.77,50.68,39.36,0,75.19-28,75.19-77.24,0-36.41-24.05-54-30.06-59.45C709.6,419.43,712.48,358,741,329.74c16-15.91,26.77-38.73,26.77-62.61,0-37.26-31.08-75.54-78.36-75.54-48.23,0-79.21,38.78-79.21,74.6,0,35.21,14.36,48.38,26.72,63.21,10.56,12.69,20.36,27.15,20.36,59.18,0,51.52-42.39,79.16-81.78,79.16-46.22,0-77.83-34.07-77.83-78.36,0-35.16,21.23-57.2,47.45-83.39a32.6,32.6,0,0,0,0-46.28l-53.71-53.28c-8.57-8.49-20.22-14.57-32.35-14.57H255c-12.47,0-24.41,6.25-33.23,14.95l-56.21,55.74a26.43,26.43,0,0,0,0,37.61l.31.3L210.26,343c20.4,20.24,20.75,62.06.74,81.88-8,7.92-22.49,18-34.31,30.56-23.14,24.62-27.34,75.54,4,106.65,31.58,31.31,81.37,25.41,108.44-1.42,14.7-14.58,25.26-30.06,67.1-30.06,46.28,0,79.49,40.73,79.49,76,0,46.35-36.14,80.56-78.84,80.56C344.68,687.2,323.53,686.29,311,674.79Zm46-206.93c-49.29,0-79.13-38.86-79.13-78.94,0-38.55,29.79-77.87,79.13-77.87,49.52,0,79.2,41.09,79.2,78.24,0,39.63-29.95,78.61-79.2,78.61Z"/><g id="Old"><path class="cls-2" d="M925.07,656.86q-13.86,0-22.12-6.2t-8.26-14.61V354.41q0-10.64,9.61-16a42.22,42.22,0,0,1,20.77-5.31h91.57a138.39,138.39,0,0,1,42.89,6.65A67,67,0,0,1,1093,363.49q13,17,13,48.49,0,27-10,44.5a57.15,57.15,0,0,1-27.92,25,82.41,82.41,0,0,1,24.12,13q10.27,8.21,16.09,21.93t5.8,35.86v9.31q0,35-11.84,55.79T1070,647.51q-20.34,9.29-45.79,9.29ZM964.43,455.4H1011q12.86,0,19.09-9.68a37.68,37.68,0,0,0,6.22-20.68,39.26,39.26,0,0,0-2.89-14.94,27.77,27.77,0,0,0-8.43-11.43q-5.55-4.4-14-4.4H964.43Zm0,141.28h44.41q16.86,0,26.13-9.7t9.31-30.86v-7.06q0-22.47-9.31-31.52t-26.13-9H964.43Z"/><path class="cls-2" d="M1255.81,659.92q-30.82,0-55.64-10.19a82.52,82.52,0,0,1-39.28-33.24q-14.54-23.07-14.52-61.12V438q0-38.11,14.52-61.11a82.6,82.6,0,0,1,39.3-33.23q24.8-10.19,55.64-10.19t55.82,10.19a82.52,82.52,0,0,1,39.54,33.22Q1365.69,400,1365.7,438V555.36q0,38.11-14.51,61.12a82.45,82.45,0,0,1-39.54,33.21Q1286.59,659.94,1255.81,659.92Zm-.28-60.13q18.87,0,29.65-10.69T1296,555.25V438.15q0-23-10.71-33.61t-29.44-10.61q-18.74,0-29.22,10.61t-10.48,33.61V555.57q0,22.86,10.4,33.37t29,10.49Z"/><path class="cls-2" d="M1440.55,656.86q-13.85,0-22.11-6.2t-8.26-14.61V354.41q0-10.64,9.6-16a42.33,42.33,0,0,1,20.77-5.31h91.58A138.33,138.33,0,0,1,1575,339.8a67,67,0,0,1,33.51,23.69q12.95,17,13,48.49,0,27-10,44.5a57.15,57.15,0,0,1-27.92,25,82.53,82.53,0,0,1,24.12,13,54.72,54.72,0,0,1,16.08,21.93q5.82,13.71,5.81,35.86v9.31q0,35-11.84,55.79t-32.16,30.09q-20.33,9.29-45.79,9.29Zm39.36-201.46h46.58q12.87,0,19.09-9.68a37.58,37.58,0,0,0,6.21-20.68,39.06,39.06,0,0,0-2.88-14.94,27.77,27.77,0,0,0-8.43-11.43q-5.55-4.4-14-4.4h-46.58Zm0,141.28h44.35q16.88,0,26.19-9.7t9.31-30.86v-7.06q0-22.47-9.31-31.52t-26.19-9h-44.35Z"/></g></svg>