<svg id="Layer_1" data-name="Layer 1" xmlns="http://www.w3.org/2000/svg" viewBox="0 0 999 1428"><defs><style>.cls-1{fill:#f4f4f4;}.cls-2{fill:#ff6936;}</style></defs><title>Vector shapes for BOB 2</title><path class="cls-1" d="M887.14,1421.5H111.9A105.4,105.4,0,0,1,6.5,1316.1V112A105.42,105.42,0,0,1,111.86,6.5H887.1A105.4,105.4,0,0,1,992.5,111.9V1316A105.42,105.42,0,0,1,887.14,1421.5Z"/><path class="cls-2" d="M313.66,721.4c-25.4-23.5-29-32-54.9-57.9-10.2-10.2-31.2-10.5-41.5-.2-22,22-61.5,61.2-81.7,81.4-12.3,12.3-13.1,30-.7,42.3L217,869.1c11.1,11.1,31.6,11.4,42.5,0,14-14.6,21.6-22.9,42.5-43.8,30.9-30.9,96.3-23.8,122.7,0,18.3,16.5,35,51.5,84.9,51.5,47.8,0,95.8-36.4,95.8-92,0-73.4-63.4-69.3-63.4-147.2,0-61.8,46.4-93,95.1-93,72.9,0,75.5,62.5,144,62.5,48.1,0,92-34.6,92-95.3,0-44.9-29.4-66.6-36.8-73.3-35.1-32.2-31.6-108,3.3-142.9,19.6-19.6,32.7-47.7,32.7-77.2,0-46-38-93.2-95.8-93.2-59,0-96.9,47.8-96.9,92,0,43.4,17.6,59.7,32.7,78,12.9,15.6,24.9,33.5,24.9,73,0,63.6-51.8,97.7-100,97.7-56.5,0-95.2-42.1-95.2-96.7,0-43.4,26-70.6,58-102.9a40.41,40.41,0,0,0,0-57.1l-65.7-65.7c-10.5-10.5-24.7-18-39.6-18H245.16c-15.2,0-29.9,7.7-40.6,18.4l-68.8,68.9a32.78,32.78,0,0,0,.4,46.8l54.3,52.4c25,25,25.4,76.6.9,101-9.8,9.8-27.5,22.2-42,37.7-28.3,30.4-33.4,93.2,4.9,131.6,38.6,38.6,99.5,31.4,132.6-1.8,18-18,30.9-37.1,82.1-37.1,56.6,0,97.2,50.3,97.2,93.8,0,57.2-44.2,99.4-96.4,99.4C354.76,736.6,329,735.5,313.66,721.4Zm55.6-254.95c-60.2,0-96.8-48-96.8-97.4,0-47.6,36.4-96.1,96.8-96.1,60.6,0,96.9,50.7,96.9,96.5C466.16,418.35,429.46,466.45,369.26,466.45Z"/><g id="Old"><path class="cls-2" d="M194,1293.6c-8.55,0-15.27-1.9-20.36-5.7s-7.64-8.2-7.64-13.4V1017c0-6.51,2.9-11.31,8.7-14.61a38.55,38.55,0,0,1,18.81-4.9h83.05a123.84,123.84,0,0,1,38.92,6.1,61,61,0,0,1,30.41,21.71c7.8,10.4,11.71,25.21,11.71,44.31,0,16.51-3,30-9.11,40.72a52.09,52.09,0,0,1-25.31,22.91,75.55,75.55,0,0,1,21.91,11.9,50.24,50.24,0,0,1,14.61,20c3.5,8.4,5.3,19.3,5.3,32.81v8.5q0,32-10.71,51c-7.2,12.7-16.9,21.91-29.11,27.51s-26.11,8.5-41.52,8.5H194Zm34.9-185.1h42.35c7.77,0,13.55-3,17.34-8.87a34.53,34.53,0,0,0,5.68-18.93,37.54,37.54,0,0,0-2.59-13.75,25.6,25.6,0,0,0-7.68-10.46c-3.38-2.69-7.57-4-12.65-4H229v56Zm.1,130h40.56c10.31,0,18.22-3,23.93-8.91s8.51-15.42,8.51-28.34v-6.5c0-13.82-2.8-23.43-8.51-28.94s-13.62-8.31-23.93-8.31H229v81Z"/><path class="cls-2" d="M494.3,1296.2q-27.93,0-50.45-9.31a74.34,74.34,0,0,1-35.64-30.43q-13.21-21-13.21-56V1093.09q0-34.83,13.21-55.95a75.78,75.78,0,0,1,35.64-30.43q22.51-9.32,50.45-9.31c18.62,0,35.54,3.1,50.65,9.31a74.7,74.7,0,0,1,35.84,30.43c8.81,14,13.21,32.73,13.21,55.95V1200.5q0,34.83-13.21,56A75.34,75.34,0,0,1,545,1286.89C529.74,1293.09,512.92,1296.2,494.3,1296.2Zm-.5-55.67c11.24,0,20.09-3.19,26.55-9.65s9.65-16.61,9.65-30.63V1093.54c0-13.92-3.18-24.16-9.65-30.63s-15.31-9.64-26.55-9.64-20.09,3.18-26.35,9.64-9.45,16.61-9.45,30.63v106.71c0,13.92,3.18,24.17,9.45,30.63S482.46,1240.53,493.8,1240.53Z"/><path class="cls-2" d="M662,1293.6c-8.55,0-15.27-1.9-20.36-5.7s-7.64-8.2-7.64-13.4V1017c0-6.51,2.9-11.31,8.7-14.61a38.55,38.55,0,0,1,18.81-4.9h83a123.84,123.84,0,0,1,38.92,6.1,61,61,0,0,1,30.41,21.71c7.8,10.4,11.71,25.21,11.71,44.31,0,16.51-3,30-9.11,40.72a52.09,52.09,0,0,1-25.31,22.91,75.55,75.55,0,0,1,21.91,11.9,50.24,50.24,0,0,1,14.61,20c3.5,8.4,5.3,19.3,5.3,32.81v8.5q0,32-10.71,51c-7.2,12.7-16.9,21.91-29.11,27.51s-26.11,8.5-41.52,8.5H662Zm34.9-185.1h42.35c7.77,0,13.55-3,17.34-8.87a34.53,34.53,0,0,0,5.68-18.93,37.54,37.54,0,0,0-2.59-13.75,25.6,25.6,0,0,0-7.68-10.46c-3.38-2.69-7.57-4-12.65-4H697v56Zm-.9,130h40.56c10.31,0,18.22-3,23.93-8.91s8.51-15.42,8.51-28.34v-6.5c0-13.82-2.8-23.43-8.51-28.94s-13.62-8.31-23.93-8.31H696Z"/></g></svg>